<mxfile host="Electron" modified="2023-07-31T11:00:29.671Z" agent="Mozilla/5.0 (Macintosh; Intel Mac OS X 10_15_7) AppleWebKit/537.36 (KHTML, like Gecko) draw.io/21.2.1 Chrome/112.0.5615.87 Electron/24.1.2 Safari/537.36" etag="s1zyiNHbKyoXc70PpIac" version="21.2.1" type="device">
  <diagram id="3kmqmrlrJtR5_gEKRYD9" name="Page-1">
    <mxGraphModel dx="1834" dy="904" grid="0" gridSize="10" guides="1" tooltips="1" connect="1" arrows="1" fold="1" page="0" pageScale="1" pageWidth="1169" pageHeight="827" background="#ffffff" math="0" shadow="0">
      <root>
        <mxCell id="0" />
        <mxCell id="1" parent="0" />
        <mxCell id="U8sh5wIiN62jnsw1Fdoy-3" value="event&lt;br&gt;notification" style="edgeStyle=none;curved=1;rounded=0;orthogonalLoop=1;jettySize=auto;html=1;fontSize=12;startSize=8;endSize=8;" parent="1" source="U8sh5wIiN62jnsw1Fdoy-1" target="U8sh5wIiN62jnsw1Fdoy-2" edge="1">
          <mxGeometry relative="1" as="geometry" />
        </mxCell>
        <mxCell id="U8sh5wIiN62jnsw1Fdoy-1" value="S3 bucket&lt;br&gt;(Unstructured data -&lt;br&gt;.txt, .pdf, docx, ...)" style="sketch=0;outlineConnect=0;fontColor=#232F3E;gradientColor=none;fillColor=#3F8624;strokeColor=none;dashed=0;verticalLabelPosition=bottom;verticalAlign=top;align=center;html=1;fontSize=12;fontStyle=0;aspect=fixed;pointerEvents=1;shape=mxgraph.aws4.bucket_with_objects;" parent="1" vertex="1">
          <mxGeometry x="-140" y="222.46" width="46.15" height="48" as="geometry" />
        </mxCell>
        <mxCell id="U8sh5wIiN62jnsw1Fdoy-5" style="edgeStyle=none;curved=1;rounded=0;orthogonalLoop=1;jettySize=auto;html=1;fontSize=12;startSize=8;endSize=8;" parent="1" source="U8sh5wIiN62jnsw1Fdoy-2" target="U8sh5wIiN62jnsw1Fdoy-4" edge="1">
          <mxGeometry relative="1" as="geometry" />
        </mxCell>
        <mxCell id="U8sh5wIiN62jnsw1Fdoy-7" value="batch" style="edgeStyle=none;curved=1;rounded=0;orthogonalLoop=1;jettySize=auto;html=1;fontSize=12;startSize=8;endSize=8;" parent="1" source="U8sh5wIiN62jnsw1Fdoy-2" target="U8sh5wIiN62jnsw1Fdoy-6" edge="1">
          <mxGeometry relative="1" as="geometry" />
        </mxCell>
        <mxCell id="U8sh5wIiN62jnsw1Fdoy-2" value="SQS queue" style="sketch=0;outlineConnect=0;fontColor=#232F3E;gradientColor=none;fillColor=#B0084D;strokeColor=none;dashed=0;verticalLabelPosition=bottom;verticalAlign=top;align=center;html=1;fontSize=12;fontStyle=0;aspect=fixed;pointerEvents=1;shape=mxgraph.aws4.queue;" parent="1" vertex="1">
          <mxGeometry x="22" y="232" width="48" height="28.92" as="geometry" />
        </mxCell>
        <mxCell id="U8sh5wIiN62jnsw1Fdoy-4" value="SQS queue&lt;br&gt;(dead-letter)" style="sketch=0;outlineConnect=0;fontColor=#232F3E;gradientColor=none;fillColor=#B0084D;strokeColor=none;dashed=0;verticalLabelPosition=bottom;verticalAlign=top;align=center;html=1;fontSize=12;fontStyle=0;aspect=fixed;pointerEvents=1;shape=mxgraph.aws4.queue;" parent="1" vertex="1">
          <mxGeometry x="22" y="126" width="48" height="28.92" as="geometry" />
        </mxCell>
        <mxCell id="U8sh5wIiN62jnsw1Fdoy-12" value="bulk" style="edgeStyle=none;curved=1;rounded=0;orthogonalLoop=1;jettySize=auto;html=1;fontSize=12;startSize=8;endSize=8;" parent="1" source="U8sh5wIiN62jnsw1Fdoy-6" target="U8sh5wIiN62jnsw1Fdoy-11" edge="1">
          <mxGeometry relative="1" as="geometry" />
        </mxCell>
        <mxCell id="U8sh5wIiN62jnsw1Fdoy-6" value="Lambda function&lt;br&gt;(data_ingest.py)" style="sketch=0;outlineConnect=0;fontColor=#232F3E;gradientColor=none;fillColor=#D45B07;strokeColor=none;dashed=0;verticalLabelPosition=bottom;verticalAlign=top;align=center;html=1;fontSize=12;fontStyle=0;aspect=fixed;pointerEvents=1;shape=mxgraph.aws4.lambda_function;" parent="1" vertex="1">
          <mxGeometry x="163" y="222.46" width="48" height="48" as="geometry" />
        </mxCell>
        <mxCell id="U8sh5wIiN62jnsw1Fdoy-10" style="edgeStyle=none;curved=1;rounded=0;orthogonalLoop=1;jettySize=auto;html=1;fontSize=12;startSize=8;endSize=8;" parent="1" source="U8sh5wIiN62jnsw1Fdoy-9" target="U8sh5wIiN62jnsw1Fdoy-6" edge="1">
          <mxGeometry relative="1" as="geometry" />
        </mxCell>
        <mxCell id="U8sh5wIiN62jnsw1Fdoy-9" value="ECR registry" style="sketch=0;outlineConnect=0;fontColor=#232F3E;gradientColor=none;fillColor=#D45B07;strokeColor=none;dashed=0;verticalLabelPosition=bottom;verticalAlign=top;align=center;html=1;fontSize=12;fontStyle=0;aspect=fixed;pointerEvents=1;shape=mxgraph.aws4.registry;" parent="1" vertex="1">
          <mxGeometry x="163" y="343" width="48" height="48" as="geometry" />
        </mxCell>
        <mxCell id="U8sh5wIiN62jnsw1Fdoy-11" value="OpenSearch&lt;br&gt;index&lt;br&gt;(knn_vector)" style="sketch=0;outlineConnect=0;fontColor=#232F3E;gradientColor=none;fillColor=#4D27AA;strokeColor=none;dashed=0;verticalLabelPosition=bottom;verticalAlign=top;align=center;html=1;fontSize=12;fontStyle=0;aspect=fixed;pointerEvents=1;shape=mxgraph.aws4.opensearch_service_index;" parent="1" vertex="1">
          <mxGeometry x="304" y="222.46" width="48" height="48" as="geometry" />
        </mxCell>
        <mxCell id="3qlNBdQy3aU4WqokpOsB-2" style="edgeStyle=none;curved=1;rounded=0;orthogonalLoop=1;jettySize=auto;html=1;fontSize=12;startSize=8;endSize=8;startArrow=classic;startFill=1;" edge="1" parent="1" source="3qlNBdQy3aU4WqokpOsB-1" target="U8sh5wIiN62jnsw1Fdoy-6">
          <mxGeometry relative="1" as="geometry" />
        </mxCell>
        <mxCell id="3qlNBdQy3aU4WqokpOsB-1" value="Embedding API" style="sketch=0;outlineConnect=0;fontColor=#232F3E;gradientColor=none;fillColor=#232F3D;strokeColor=none;dashed=0;verticalLabelPosition=bottom;verticalAlign=top;align=center;html=1;fontSize=12;fontStyle=0;aspect=fixed;pointerEvents=1;shape=mxgraph.aws4.generic_application;" vertex="1" parent="1">
          <mxGeometry x="163" y="27" width="48" height="48" as="geometry" />
        </mxCell>
      </root>
    </mxGraphModel>
  </diagram>
</mxfile>
